<?xml version="1.0" encoding="UTF-8" standalone="no"?>
<!-- Created with Inkscape (http://www.inkscape.org/) -->
<svg xmlns:dc="http://purl.org/dc/elements/1.1/" xmlns:cc="http://creativecommons.org/ns#" xmlns:rdf="http://www.w3.org/1999/02/22-rdf-syntax-ns#" xmlns:svg="http://www.w3.org/2000/svg" xmlns="http://www.w3.org/2000/svg" xmlns:sodipodi="http://sodipodi.sourceforge.net/DTD/sodipodi-0.dtd" xmlns:inkscape="http://www.inkscape.org/namespaces/inkscape" id="svg2" version="1.1" inkscape:version="0.48.4 r9939" width="95.814625" height="72.62375" xml:space="preserve" sodipodi:docname="Objet dynamique vectoriel1.ai"><metadata id="metadata8"><rdf:RDF><cc:Work rdf:about=""><dc:format>image/svg+xml</dc:format><dc:type rdf:resource="http://purl.org/dc/dcmitype/StillImage"/><dc:title/></cc:Work></rdf:RDF></metadata><defs id="defs6"><clipPath clipPathUnits="userSpaceOnUse" id="clipPath16"><path d="m 0,58.099 76.652,0 L 76.652,0 0,0 0,58.099 z" id="path18"/></clipPath></defs><sodipodi:namedview pagecolor="#ffffff" bordercolor="#666666" borderopacity="1" objecttolerance="10" gridtolerance="10" guidetolerance="10" inkscape:pageopacity="0" inkscape:pageshadow="2" inkscape:window-width="1680" inkscape:window-height="997" id="namedview4" showgrid="false" inkscape:zoom="3.2496257" inkscape:cx="47.907314" inkscape:cy="36.311874" inkscape:window-x="-8" inkscape:window-y="-8" inkscape:window-maximized="1" inkscape:current-layer="g10"/><g id="g10" inkscape:groupmode="layer" inkscape:label="Objet dynamique vectoriel1" transform="matrix(1.25,0,0,-1.25,0,72.62375)"><g id="g12"><g id="g14" clip-path="url(#clipPath16)"><g id="g20" transform="translate(11.4719,38.5934)"><path d="m 0,0 c -2.219,0 -3.956,-1.737 -3.956,-3.955 0,-2.212 1.737,-3.944 3.956,-3.944 2.218,0 3.955,1.732 3.955,3.944 C 3.955,-1.737 2.218,0 0,0 m 0,-6.064 c -1.161,0 -1.941,0.848 -1.941,2.109 0,1.268 0.78,2.12 1.941,2.12 1.16,0 1.939,-0.852 1.939,-2.12 C 1.939,-5.216 1.16,-6.064 0,-6.064" style="fill:#2b2b2a;fill-opacity:1;fill-rule:nonzero;stroke:none" id="path22"/></g><g id="g24" transform="translate(20.6298,30.694)"><path d="m 0,0 c 2.122,0 3.197,1.002 3.197,2.978 l 0,4.887 c 0,0.013 0,0.025 -10e-4,0.034 l -0.01,0 -1.886,0 c -0.01,0 -0.017,0 -0.022,0 C 1.277,7.89 1.277,7.877 1.277,7.865 l 0,-5.128 c 0,-0.783 -0.65,-1.139 -1.254,-1.139 -0.604,0 -1.253,0.356 -1.253,1.139 l 0,5.117 c 0,0.017 0,0.034 -0.001,0.045 -0.009,0 -0.023,0 -0.034,0 l -1.931,0 -0.012,0 0,-0.023 0,-4.784 C -3.208,1.098 -2.068,0 0,0" style="fill:#2b2b2a;fill-opacity:1;fill-rule:nonzero;stroke:none" id="path26"/></g><g id="g28" transform="translate(29.3421,33.0302)"><path d="m 0,0 c 0.009,-0.013 0.867,-1.366 1.263,-2.125 0.106,-0.211 0.141,-0.211 0.206,-0.211 l 2.087,0 c 0.02,0 0.055,0.002 0.064,0.019 0.007,0.012 0.02,0.063 -0.08,0.229 C 3.163,-1.476 2.783,-0.83 2.479,-0.311 2.23,0.112 2.015,0.478 1.879,0.693 L 1.851,0.737 1.898,0.759 c 0.7,0.333 1.071,1.076 1.071,2.151 0,1.32 -0.847,2.653 -2.737,2.653 l -3.673,0 c -0.017,0 -0.029,0 -0.029,-0.06 l 0,-7.779 c 0,-0.024 0,-0.047 0.001,-0.061 l 0.006,0 0.041,0.001 1.933,0 c 0.034,0 0.043,0.002 0.046,0.004 -10e-4,10e-4 0.003,0.013 0.003,0.056 l 0,2.272 1.427,0.026 L 0,0 z m -1.44,1.495 0,2.404 1.212,0 c 0.656,0 1.046,-0.427 1.046,-1.142 0,-0.732 -0.394,-1.202 -1.032,-1.225 L -1.44,1.495 z" style="fill:#2b2b2a;fill-opacity:1;fill-rule:nonzero;stroke:none" id="path30"/></g><g id="g32" transform="translate(4.5167,34.7273)"><path d="m 0,0 -0.24,0.025 0.231,0.065 c 0.891,0.251 1.381,0.863 1.381,1.723 0,1.286 -0.85,2.053 -2.276,2.053 l -3.42,0 C -4.42,3.866 -4.42,3.851 -4.42,3.795 l 0,-7.71 c 0,-0.028 0,-0.102 0.01,-0.114 0.004,-0.003 0.021,-0.004 0.05,-0.004 l 3.75,0 c 1.34,0 2.206,0.833 2.206,2.122 C 1.596,-1.066 1.036,-0.109 0,0 m -2.403,2.308 0.922,0 c 0.516,0 0.8,-0.284 0.8,-0.8 0,-0.501 -0.299,-0.801 -0.8,-0.801 l -0.922,0 0,1.601 z m 1.04,-4.784 -1.04,0 0,1.825 1.04,0 c 0.497,0 0.858,-0.386 0.858,-0.918 0,-0.568 -0.32,-0.907 -0.858,-0.907" style="fill:#2b2b2a;fill-opacity:1;fill-rule:nonzero;stroke:none" id="path34"/></g><g id="g36" transform="translate(47.046,38.5934)"><path d="m 0,0 c -2.219,0 -3.956,-1.737 -3.956,-3.955 0,-2.212 1.737,-3.944 3.956,-3.944 2.219,0 3.956,1.732 3.956,3.944 C 3.956,-1.737 2.219,0 0,0 m 0,-6.064 c -1.161,0 -1.941,0.848 -1.941,2.109 0,1.268 0.78,2.12 1.941,2.12 1.16,0 1.939,-0.852 1.939,-2.12 C 1.939,-5.216 1.16,-6.064 0,-6.064" style="fill:#2b2b2a;fill-opacity:1;fill-rule:nonzero;stroke:none" id="path38"/></g><g id="g40" transform="translate(56.9335,15.2231)"><path d="m 0,0 c 0.004,-0.001 0.018,-0.004 0.065,-0.004 l 1.943,-0.001 c 0.007,0 0.011,0.001 0.014,0.001 0.001,0.013 0.001,0.037 0.001,0.059 l 0,7.779 c 0,0.024 0,0.047 -0.001,0.061 -0.003,0 -0.008,0 -0.014,0 l -0.045,0 -1.898,0 C 0.018,7.895 0.004,7.891 -0.002,7.889 -0.003,7.885 -0.005,7.867 -0.005,7.834 l 0,-2.827 -2.768,0 0,2.827 c 0,0.043 -0.003,0.055 -0.005,0.059 -0.003,-10e-4 -0.01,0.002 -0.044,0.002 l -1.964,0 c -0.007,0 -0.011,0 -0.014,0 C -4.802,7.881 -4.802,7.858 -4.802,7.834 l 0,-7.779 c 0,-0.022 0,-0.046 0.002,-0.059 0.003,0 0.007,-0.001 0.013,-0.001 l 0.045,0.001 1.92,0 c 0.033,0 0.044,0.003 0.047,0.004 -10e-4,0.001 0.002,0.013 0.002,0.055 l 0,3.159 2.768,0 0,-3.159 C -0.005,0.016 -0.002,0.003 0,0" style="fill:#2b2b2a;fill-opacity:1;fill-rule:nonzero;stroke:none" id="path42"/></g><g id="g44" transform="translate(10.0495,14.9943)"><path d="m 0,0 0.011,0.047 0.014,0.001 2.019,0 c 0.056,0 0.062,0 0.062,0.125 l 0,2.786 2.972,-0.025 c 0.102,0 0.117,0.018 0.126,0.093 0.031,0.503 0.031,1.018 -10e-4,1.664 0,0.066 -0.018,0.103 -0.112,0.103 l -2.985,-0.038 0,1.782 3.357,-0.025 c 0.033,0 0.043,0.002 0.047,0.004 0,-0.001 -0.002,0.019 0,0.04 l 0.004,0.037 c 0.05,0.503 0.033,1.195 0,1.676 L 5.51,8.303 C 5.508,8.32 5.506,8.34 5.503,8.347 c 0,0 -0.009,0.001 -0.04,0.001 l -5.438,0 c -0.03,0 -0.04,-0.001 -0.043,-0.002 C -0.026,8.333 -0.026,8.26 -0.026,8.236 l 0,-8.063 c 0,-0.09 0.007,-0.118 0.011,-0.126 0,0 0.002,0 0.002,0 L 0,0.047 0,0 z" style="fill:#2b2b2a;fill-opacity:1;fill-rule:nonzero;stroke:none" id="path46"/></g><g id="g48" transform="translate(21.1197,17.5547)"><path d="M 0,0 C 0.009,-0.013 0.868,-1.366 1.263,-2.125 1.369,-2.336 1.404,-2.336 1.47,-2.336 l 2.086,0 c 0.021,0 0.056,0.002 0.065,0.019 0.007,0.011 0.02,0.063 -0.08,0.229 C 3.168,-1.483 2.792,-0.844 2.489,-0.329 2.236,0.102 2.018,0.474 1.878,0.693 L 1.851,0.738 1.898,0.759 c 0.701,0.333 1.071,1.077 1.071,2.151 0,1.32 -0.846,2.653 -2.737,2.653 l -3.672,0 c -0.016,0 -0.029,0 -0.029,-0.06 l 0,-7.779 c 0,-0.024 0,-0.047 10e-4,-0.06 l 0.007,0 0.04,0 1.933,0 c 0.033,0 0.043,0.002 0.045,0.004 0,10e-4 0.003,0.015 0.003,0.056 l 0,2.272 1.426,0.026 L 0,0 z m -1.44,1.495 0,2.403 1.213,0 c 0.656,0 1.048,-0.426 1.048,-1.141 0,-0.732 -0.396,-1.201 -1.035,-1.225 L -1.44,1.495 z" style="fill:#2b2b2a;fill-opacity:1;fill-rule:nonzero;stroke:none" id="path50"/></g><g id="g52" transform="translate(27.7448,15.6787)"><path d="m 0,0 c 0.083,0.207 0.169,0.422 0.253,0.616 l 0.012,0.028 2.815,0 0.011,-0.03 C 3.167,0.426 3.357,-0.049 3.512,-0.395 3.537,-0.454 3.561,-0.46 3.606,-0.46 l 2.129,0 c 0.018,0 -0.543,0 -0.533,0.001 -0.004,0.014 0.56,0.041 0.536,0.093 C 5.355,0.405 4.937,1.248 4.512,2.105 3.554,4.038 2.565,6.035 1.847,7.438 1.845,7.438 1.838,7.44 1.825,7.44 1.816,7.44 1.805,7.439 1.794,7.438 1.782,7.438 1.766,7.437 1.751,7.437 c -0.033,0 -0.082,0 -0.1,-0.004 C 0.78,5.8 -1.025,2.16 -2.214,-0.366 c -0.027,-0.071 -0.02,-0.087 -0.02,-0.09 0,0 0.008,-0.004 0.035,-0.004 l 1.889,0 c 0.127,0 0.135,0.02 0.163,0.095 C -0.102,-0.256 -0.053,-0.131 0,0 m 0.821,2.097 0.816,1.821 0.88,-1.886 -1.724,0 0.028,0.065 z" style="fill:#2b2b2a;fill-opacity:1;fill-rule:nonzero;stroke:none" id="path54"/></g><g id="g56" transform="translate(46.7183,15.2186)"><path d="M 0,0 C 1.87,0 3.046,1.242 3.486,2.304 3.493,2.327 3.494,2.344 3.488,2.355 3.48,2.369 3.455,2.381 3.418,2.388 L 1.724,2.852 C 1.713,2.854 1.703,2.856 1.695,2.856 1.678,2.856 1.674,2.852 1.651,2.813 L 1.64,2.793 C 1.346,2.169 0.772,1.824 0.023,1.824 c -0.959,0 -1.928,0.649 -1.928,2.097 0,1.263 0.779,2.143 1.894,2.143 0.783,0 1.35,-0.354 1.687,-1.052 C 1.682,4.997 1.69,4.976 1.695,4.972 1.697,4.973 1.705,4.975 1.721,4.98 L 3.4,5.633 C 3.416,5.641 3.455,5.66 3.406,5.774 3.125,6.413 2.223,7.9 -0.056,7.9 -2.279,7.9 -3.956,6.195 -3.956,3.933 -3.956,1.691 -2.255,0 0,0" style="fill:#2b2b2a;fill-opacity:1;fill-rule:nonzero;stroke:none" id="path58"/></g><g id="g60" transform="translate(3.9558,3e-4)"><path d="M 0,0 C 1.871,0 3.047,1.241 3.486,2.305 3.493,2.326 3.494,2.345 3.488,2.355 3.48,2.369 3.455,2.381 3.419,2.389 L 1.724,2.851 C 1.713,2.855 1.703,2.856 1.694,2.856 1.679,2.856 1.675,2.853 1.653,2.814 L 1.64,2.793 C 1.348,2.169 0.772,1.824 0.022,1.824 c -0.959,0 -1.927,0.649 -1.927,2.097 0,1.262 0.779,2.143 1.894,2.143 C 0.77,6.064 1.338,5.71 1.676,5.012 1.682,4.998 1.69,4.977 1.695,4.972 1.697,4.973 1.705,4.974 1.722,4.98 L 3.4,5.633 C 3.417,5.642 3.454,5.661 3.407,5.775 3.126,6.413 2.224,7.899 -0.057,7.899 -2.279,7.899 -3.956,6.194 -3.956,3.933 -3.956,1.69 -2.255,0 0,0" style="fill:#2b2b2a;fill-opacity:1;fill-rule:nonzero;stroke:none" id="path62"/></g><g id="g64" transform="translate(12.8094,7.8998)"><path d="m 0,0 c -2.219,0 -3.956,-1.737 -3.956,-3.955 0,-2.212 1.737,-3.944 3.956,-3.944 2.219,0 3.956,1.732 3.956,3.944 C 3.956,-1.737 2.219,0 0,0 m 0,-6.063 c -1.16,0 -1.939,0.847 -1.939,2.108 0,1.268 0.779,2.12 1.939,2.12 1.16,0 1.94,-0.852 1.94,-2.12 0,-1.261 -0.78,-2.108 -1.94,-2.108" style="fill:#2b2b2a;fill-opacity:1;fill-rule:nonzero;stroke:none" id="path66"/></g><g id="g68" transform="translate(23.7897,3.5019)"><path d="m 0,0 0.071,-3.455 c 0,-0.043 0,-0.046 0.045,-0.046 l 1.874,0 c 0.03,0 0.036,0.005 0.036,0.005 0.004,0.006 0.002,0.034 0,0.053 C 2.025,-3.426 2.023,-3.407 2.023,-3.387 1.94,-0.481 1.872,1.418 1.714,4.345 1.714,4.377 1.699,4.395 1.693,4.398 1.696,4.397 1.691,4.397 1.687,4.397 1.668,4.397 1.647,4.387 1.632,4.372 0.534,3.311 -1.378,1.304 -1.847,0.744 L -1.881,0.703 -1.917,0.743 C -2.447,1.344 -4.46,3.366 -5.42,4.314 -5.445,4.34 -5.458,4.346 -5.47,4.347 -5.479,4.341 -5.494,4.324 -5.502,4.26 -5.629,1.419 -5.713,-1.399 -5.732,-3.467 l 0,-0.026 c 0.014,0.002 0.033,0.004 0.057,0.004 l 1.723,0 c 0.081,0 0.081,0 0.081,0.114 l 0.082,3.384 0.077,-0.077 c 0.013,-0.014 1.339,-1.349 1.782,-1.804 0.011,-0.011 0.039,-0.041 0.05,-0.043 10e-4,0 0.024,0.01 0.058,0.043 0.452,0.455 1.732,1.779 1.745,1.793 L 0,0 z" style="fill:#2b2b2a;fill-opacity:1;fill-rule:nonzero;stroke:none" id="path70"/></g><g id="g72" transform="translate(33.3964,6.2737)"><path d="m 0,0 c -0.001,0 0,0.01 0,0.034 l 0,1.521 c 0,0.05 -0.005,0.063 -0.007,0.067 0,0 -0.007,0.004 -0.04,0.004 l -6.237,0 C -6.319,1.626 -6.327,1.622 -6.329,1.622 -6.331,1.616 -6.331,1.584 -6.331,1.555 l 0,-1.521 0,-0.035 c 0.007,0 0.017,-0.002 0.037,-0.002 l 2.119,0.025 0,-6.235 c 0,-0.023 0,-0.047 10e-4,-0.06 0.004,0 0.011,-0.001 0.02,-0.001 l 0.051,0.001 1.945,0 c 0.04,0 0.054,0.002 0.057,0.005 10e-4,10e-4 0.003,0.013 0.003,0.055 l 0,6.235 2.062,-0.025 c 0.024,0 0.033,0.002 0.036,0.003" style="fill:#2b2b2a;fill-opacity:1;fill-rule:nonzero;stroke:none" id="path74"/></g><g id="g76" transform="translate(33.4318,45.7985)"><path d="M 0,0 -2.063,0 C -2.156,0 -2.203,0.023 -2.307,0.233 -2.703,0.991 -3.554,2.33 -3.554,2.33 l -1.341,-0.023 0,-2.202 C -4.895,0.012 -4.905,0 -4.987,0 L -6.898,0 C -6.99,0 -6.99,-0.012 -6.99,0.105 l 0,7.689 c 0,0.118 0.057,0.105 0.092,0.105 l 3.612,0 c 1.795,0 2.75,-1.235 2.75,-2.668 C -0.536,4.16 -0.91,3.402 -1.619,3.064 -1.317,2.587 -0.654,1.41 0.022,0.315 0.162,0.082 0.128,0 0,0 m -3.74,6.163 -1.155,0 0,-2.283 1.167,0.034 c 0.629,0.024 0.978,0.49 0.978,1.166 0,0.617 -0.314,1.083 -0.99,1.083" style="fill:#2b2b2a;fill-opacity:1;fill-rule:nonzero;stroke:none" id="path78"/></g><g id="g80" transform="translate(49.9675,45.7982)"><path d="M 0,0 C -0.044,0 -0.077,0.023 -0.11,0.034 L -1.347,0.758 C -1.804,0.357 -2.282,0 -3.387,0 c -2.384,0 -3.9,1.605 -3.9,3.945 0,2.362 1.74,3.954 3.956,3.954 1.795,0 2.808,-0.902 3.343,-2.049 C 0.057,5.75 0.068,5.672 -0.01,5.649 L -1.647,5.025 c -0.079,-0.034 -0.135,0.023 -0.168,0.09 -0.246,0.5 -0.758,0.868 -1.493,0.868 -1.215,0 -1.894,-0.835 -1.894,-2.049 0,-1.271 0.723,-2.028 1.861,-2.028 0.958,0 1.459,0.624 1.593,1.414 0.011,0.067 0.045,0.112 0.089,0.112 l 1.671,0 c 0.067,0 0.089,-0.022 0.089,-0.078 l 0,-3.308 C 0.101,0.046 0.101,0 0,0" style="fill:#2b2b2a;fill-opacity:1;fill-rule:nonzero;stroke:none" id="path82"/></g><g id="g84" transform="translate(54.3512,45.7985)"><path d="m 0,0 -1.934,0 c -0.105,0 -0.105,-0.012 -0.105,0.105 l 0,7.689 c 0,0.118 0,0.105 0.105,0.105 l 1.934,0 c 0.105,0 0.117,-0.011 0.117,-0.105 l 0,-7.689 C 0.117,0.012 0.105,0 0,0" style="fill:#2b2b2a;fill-opacity:1;fill-rule:nonzero;stroke:none" id="path86"/></g><g id="g88" transform="translate(60.4262,45.7982)"><path d="m 0,0 c -2.223,0 -3.907,1.761 -3.907,3.945 0,2.183 1.684,3.954 3.907,3.954 2.223,0 3.908,-1.771 3.908,-3.954 C 3.908,1.761 2.223,0 0,0 m 0,5.994 c -1.188,0 -1.848,-0.902 -1.848,-2.049 0,-1.148 0.66,-2.039 1.848,-2.039 1.167,0 1.849,0.891 1.849,2.039 0,1.147 -0.682,2.049 -1.849,2.049" style="fill:#2b2b2a;fill-opacity:1;fill-rule:nonzero;stroke:none" id="path90"/></g><g id="g92" transform="translate(72.7097,45.8025)"><path d="M 0,0 C -0.022,-0.011 -0.055,0 -0.1,0.033 -1.768,1.28 -4.373,3.677 -4.373,3.677 l 0,-3.57 c 0,-0.1 0,-0.1 -0.099,-0.1 l -1.667,0 c -0.079,0 -0.111,0.067 -0.111,0.112 -0.055,2.814 -0.044,4.761 0,7.676 0,0.055 0.012,0.077 0.032,0.088 0.023,0.022 0.057,0.011 0.09,-0.011 1.578,-1.126 4.284,-3.633 4.284,-3.633 l 0,3.504 c 0,0.121 0,0.132 0.089,0.132 l 1.678,0 c 0.11,0 0.11,-0.022 0.11,-0.132 0.044,-2.153 0.033,-5.303 0,-7.6 C 0.033,0.066 0.033,0.01 0,0" style="fill:#2b2b2a;fill-opacity:1;fill-rule:nonzero;stroke:none" id="path94"/></g><g id="g96" transform="translate(41.1628,15.2227)"><path d="M 0,0 C -0.023,-0.011 -0.056,0 -0.1,0.033 -1.768,1.28 -4.373,3.677 -4.373,3.677 l 0,-3.57 c 0,-0.099 0,-0.099 -0.099,-0.099 l -1.668,0 c -0.078,0 -0.11,0.066 -0.11,0.11 -0.055,2.815 -0.044,4.761 0,7.677 0,0.055 0.011,0.077 0.032,0.089 0.023,0.021 0.057,0.01 0.089,-0.012 C -4.55,6.746 -1.844,4.24 -1.844,4.24 l 0,3.503 c 0,0.121 0,0.132 0.089,0.132 l 1.678,0 c 0.11,0 0.11,-0.021 0.11,-0.132 0.044,-2.153 0.032,-5.303 0,-7.6 C 0.033,0.066 0.033,0.011 0,0" style="fill:#2b2b2a;fill-opacity:1;fill-rule:nonzero;stroke:none" id="path98"/></g><g id="g100" transform="translate(60.0479,30.694)"><path d="M 0,0 C -0.043,0 -0.077,0.023 -0.11,0.034 L -1.348,0.758 C -1.804,0.357 -2.283,0 -3.386,0 c -2.384,0 -3.9,1.605 -3.9,3.944 0,2.363 1.74,3.955 3.955,3.955 1.795,0 2.808,-0.902 3.343,-2.049 C 0.057,5.75 0.068,5.671 -0.01,5.649 L -1.647,5.025 c -0.079,-0.034 -0.135,0.023 -0.168,0.089 -0.246,0.501 -0.758,0.869 -1.493,0.869 -1.214,0 -1.894,-0.836 -1.894,-2.05 0,-1.27 0.723,-2.027 1.861,-2.027 0.958,0 1.459,0.623 1.593,1.414 0.012,0.067 0.045,0.112 0.089,0.112 l 1.671,0 c 0.067,0 0.089,-0.022 0.089,-0.078 l 0,-3.309 C 0.101,0.045 0.101,0 0,0" style="fill:#2b2b2a;fill-opacity:1;fill-rule:nonzero;stroke:none" id="path102"/></g><g id="g104" transform="translate(41.6429,30.694)"><path d="M 0,0 C -0.044,0 -0.077,0.023 -0.11,0.034 L -1.348,0.758 C -1.804,0.357 -2.283,0 -3.386,0 c -2.384,0 -3.9,1.605 -3.9,3.944 0,2.363 1.739,3.955 3.955,3.955 1.795,0 2.809,-0.902 3.343,-2.049 C 0.057,5.75 0.068,5.671 -0.011,5.649 L -1.647,5.025 c -0.079,-0.034 -0.135,0.023 -0.168,0.089 -0.246,0.501 -0.758,0.869 -1.492,0.869 -1.216,0 -1.895,-0.836 -1.895,-2.05 0,-1.27 0.723,-2.027 1.861,-2.027 0.958,0 1.459,0.623 1.594,1.414 0.011,0.067 0.044,0.112 0.088,0.112 l 1.671,0 C 0.078,3.432 0.1,3.41 0.1,3.354 l 0,-3.309 C 0.1,0.045 0.1,0 0,0" style="fill:#2b2b2a;fill-opacity:1;fill-rule:nonzero;stroke:none" id="path106"/></g><g id="g108" transform="translate(40.8269,3e-4)"><path d="m 0,0 -5.555,0 c -0.116,0 -0.127,0.023 -0.127,0.164 l 0,7.619 c 0,0.105 -0.012,0.116 0.104,0.116 l 5.568,0 c 0.117,0 0.129,-0.011 0.129,-0.151 l 0,-1.422 C 0.119,6.222 0.084,6.164 -0.01,6.164 l -3.634,0.034 0,-1.316 3.167,0 c 0.104,0 0.117,-0.023 0.117,-0.163 l 0,-1.422 c 0,-0.14 -0.013,-0.163 -0.117,-0.163 l -3.167,0 0,-1.351 L 0,1.818 c 0.129,0 0.129,0 0.129,-0.151 l 0,-1.503 C 0.129,0.023 0.117,0 0,0" style="fill:#2b2b2a;fill-opacity:1;fill-rule:nonzero;stroke:none" id="path110"/></g><g id="g112" transform="translate(40.8269,45.7982)"><path d="m 0,0 -5.555,0 c -0.116,0 -0.127,0.024 -0.127,0.164 l 0,7.619 c 0,0.105 -0.012,0.117 0.104,0.117 l 5.568,0 c 0.117,0 0.129,-0.012 0.129,-0.152 l 0,-1.422 C 0.119,6.222 0.084,6.164 -0.01,6.164 l -3.634,0.034 0,-1.316 3.167,0 c 0.104,0 0.117,-0.023 0.117,-0.163 l 0,-1.421 c 0,-0.14 -0.013,-0.163 -0.117,-0.163 l -3.167,0 0,-1.352 L 0,1.818 c 0.129,0 0.129,0 0.129,-0.151 l 0,-1.503 C 0.129,0.024 0.117,0 0,0" style="fill:#2b2b2a;fill-opacity:1;fill-rule:nonzero;stroke:none" id="path114"/></g><g id="g116" transform="translate(68.7864,30.698)"><path d="m 0,0 c -0.022,-0.011 -0.055,0 -0.1,0.033 -1.667,1.248 -4.273,3.644 -4.273,3.644 l 0,-3.57 c 0,-0.099 0,-0.099 -0.099,-0.099 l -1.668,0 c -0.078,0 -0.11,0.066 -0.11,0.11 -0.055,2.815 -0.044,4.761 0,7.677 0,0.055 0.013,0.077 0.032,0.089 0.023,0.021 0.057,0.01 0.09,-0.012 1.579,-1.126 4.284,-3.632 4.284,-3.632 l 0,3.503 c 0,0.122 0,0.132 0.089,0.132 l 1.678,0 c 0.11,0 0.11,-0.022 0.11,-0.132 0.044,-2.153 0.033,-5.303 0,-7.6 C 0.033,0.066 0.033,0.011 0,0" style="fill:#2b2b2a;fill-opacity:1;fill-rule:nonzero;stroke:none" id="path118"/></g><g id="g120" transform="translate(66.7229,15.2186)"><path d="m 0,0 -5.555,0 c -0.116,0 -0.128,0.023 -0.128,0.164 l 0,7.618 c 0,0.106 -0.011,0.118 0.104,0.118 l 5.569,0 c 0.117,0 0.129,-0.012 0.129,-0.153 l 0,-1.421 C 0.119,6.222 0.083,6.164 -0.01,6.164 l -3.634,0.034 0,-1.316 3.166,0 c 0.105,0 0.118,-0.023 0.118,-0.163 l 0,-1.422 c 0,-0.139 -0.013,-0.162 -0.118,-0.162 l -3.166,0 0,-1.352 L 0,1.818 c 0.129,0 0.129,0 0.129,-0.152 l 0,-1.502 C 0.129,0.023 0.116,0 0,0" style="fill:#2b2b2a;fill-opacity:1;fill-rule:nonzero;stroke:none" id="path122"/></g><g id="g124" transform="translate(76.5226,30.694)"><path d="m 0,0 -5.555,0 c -0.116,0 -0.127,0.023 -0.127,0.164 l 0,7.618 c 0,0.106 -0.012,0.117 0.103,0.117 l 5.569,0 c 0.117,0 0.129,-0.011 0.129,-0.152 l 0,-1.421 C 0.119,6.222 0.084,6.164 -0.01,6.164 l -3.634,0.034 0,-1.316 3.166,0 c 0.105,0 0.118,-0.023 0.118,-0.163 l 0,-1.422 c 0,-0.14 -0.013,-0.162 -0.118,-0.162 l -3.166,0 0,-1.352 L 0,1.818 c 0.129,0 0.129,0 0.129,-0.152 l 0,-1.502 C 0.129,0.023 0.117,0 0,0" style="fill:#2b2b2a;fill-opacity:1;fill-rule:nonzero;stroke:none" id="path126"/></g><path d="m 41.229,10.72 -6.358,0 0,1.668 6.358,0 0,-1.668 z" style="fill:#f5c600;fill-opacity:1;fill-rule:nonzero;stroke:none" id="path128"/><path d="m 41.229,26.036 -6.358,0 0,1.668 6.358,0 0,-1.668 z" style="fill:#f5c600;fill-opacity:1;fill-rule:nonzero;stroke:none" id="path130"/><path d="m 41.207,41.341 -6.358,0 0,1.668 6.358,0 0,-1.668 z" style="fill:#f5c600;fill-opacity:1;fill-rule:nonzero;stroke:none" id="path132"/><path d="m 41.229,56.431 -6.358,0 0,1.668 6.358,0 0,-1.668 z" style="fill:#f5c600;fill-opacity:1;fill-rule:nonzero;stroke:none" id="path134"/></g></g></g></svg>